<svg width="159" height="29" viewBox="0 0 159 29" fill="none" xmlns="http://www.w3.org/2000/svg">
<path d="M5.708 13.1707L5.92649 12.9512L12.8089 6.03659L13.1366 5.70732C14.3383 4.5 14.3383 2.52439 13.1366 1.42683L12.6996 0.987805C12.0442 0.329268 11.2795 0 10.5147 0C9.75004 0 8.98533 0.329268 8.32986 0.878049L8.11137 1.09756L1.11975 8.12195L0.901264 8.34146C-0.300421 9.54878 -0.300421 11.5244 0.901264 12.7317L1.11975 12.9512L1.44748 13.1707C2.10295 13.7195 2.86766 14.0488 3.63237 14.0488C4.28783 14.0488 5.16178 13.7195 5.708 13.1707ZM2.75841 10.2073L10.187 2.7439C10.2963 2.63415 10.4055 2.63415 10.5147 2.63415C10.624 2.63415 10.7332 2.63415 10.8425 2.7439L11.2795 3.18293C11.3887 3.29268 11.3887 3.40244 11.3887 3.5122C11.3887 3.62195 11.3887 3.73171 11.2795 3.84146L3.85085 11.3049C3.74161 11.4146 3.63237 11.4146 3.52312 11.4146C3.41388 11.4146 3.30463 11.4146 3.19539 11.3049L2.75841 10.8659C2.64917 10.7561 2.64917 10.5366 2.64917 10.5366C2.64917 10.4268 2.64917 10.3171 2.75841 10.2073Z" fill="#060A11"/>
<path d="M22.6435 8.8909C23.8452 7.68359 23.8452 5.81773 22.6435 4.61042L22.425 4.3909L22.3157 4.28115L22.0973 4.06164C21.4418 3.51286 20.6771 3.18359 19.9124 3.18359C19.1477 3.18359 18.383 3.51286 17.7275 4.06164L17.509 4.28115L3.30726 18.5495L3.08877 18.769C1.88708 19.9763 1.88708 21.9519 3.08877 23.1592L3.30726 23.3787L3.52574 23.5983C4.07197 24.147 4.94592 24.4763 5.71063 24.4763C6.47534 24.4763 7.24004 24.147 7.89551 23.5983L8.114 23.3787L22.6435 8.8909ZM20.7863 7.02505L6.1476 21.7324C6.03836 21.9519 5.92911 21.9519 5.81987 21.9519C5.71063 21.9519 5.60138 21.9519 5.49214 21.7324L5.05516 21.2934C4.94592 21.1836 4.94592 21.0739 4.94592 20.9641C4.94592 20.8543 4.94592 20.7446 5.05516 20.6348L19.6939 5.92749C19.8031 5.81773 19.9124 5.81773 20.0216 5.81773C20.1309 5.81773 20.2401 5.81773 20.3493 5.92749L20.7863 6.36651C21.0048 6.58603 21.0048 6.91529 20.7863 7.02505Z" fill="#060A11"/>
<path d="M21.6561 16.6827C21.1099 16.134 20.2361 15.8047 19.4714 15.8047C18.7066 15.8047 17.9418 16.134 17.2864 16.6827L17.0679 16.9022L12.9166 21.073L12.6981 21.2925C11.4965 22.4998 11.4965 24.4754 12.6981 25.6827L13.1351 26.1218C13.6813 26.6705 14.5553 26.9998 15.32 26.9998C16.0847 26.9998 16.8495 26.6705 17.505 26.1218L17.7235 25.9022L21.8746 21.7315L22.0931 21.512C23.2948 20.3047 23.2948 18.3291 22.0931 17.1218L21.6561 16.6827ZM20.3452 19.7559L15.757 24.3657C15.6477 24.4754 15.5386 24.4754 15.4293 24.4754C15.3201 24.4754 15.2107 24.4754 15.1015 24.3657L14.6645 23.9266C14.446 23.7071 14.446 23.4876 14.6645 23.2681L19.2529 18.6583C19.3621 18.5486 19.4713 18.5486 19.5805 18.5486C19.6897 18.5486 19.799 18.5486 19.9082 18.6583L20.3452 19.0974C20.4545 19.2071 20.4545 19.3169 20.4545 19.4266C20.4545 19.4266 20.4545 19.5364 20.3452 19.7559Z" fill="#060A11"/>
<path d="M30.776 23V5.96H38C38.784 5.96 39.504 6.12 40.16 6.44C40.816 6.76 41.384 7.192 41.864 7.736C42.36 8.28 42.744 8.888 43.016 9.56C43.288 10.232 43.424 10.92 43.424 11.624C43.424 12.584 43.2 13.496 42.752 14.36C42.304 15.224 41.688 15.928 40.904 16.472C40.12 17.016 39.192 17.288 38.12 17.288H34.088V23H30.776ZM34.088 14.384H37.928C38.328 14.384 38.688 14.272 39.008 14.048C39.328 13.824 39.584 13.504 39.776 13.088C39.968 12.656 40.064 12.168 40.064 11.624C40.064 11.032 39.952 10.528 39.728 10.112C39.52 9.696 39.24 9.384 38.888 9.176C38.552 8.968 38.184 8.864 37.784 8.864H34.088V14.384ZM52.9051 13.208C51.9291 13.208 51.0571 13.4 50.2891 13.784C49.5211 14.152 48.9691 14.688 48.6331 15.392V23H45.4171V10.424H48.3691V13.112C48.8171 12.248 49.3851 11.568 50.0731 11.072C50.7611 10.576 51.4891 10.304 52.2571 10.256C52.4331 10.256 52.5691 10.256 52.6651 10.256C52.7611 10.256 52.8411 10.264 52.9051 10.28V13.208ZM60.3663 23.24C59.3583 23.24 58.4463 23.072 57.6303 22.736C56.8143 22.384 56.1183 21.912 55.5423 21.32C54.9663 20.712 54.5183 20.024 54.1983 19.256C53.8943 18.472 53.7423 17.648 53.7423 16.784C53.7423 15.584 54.0063 14.488 54.5343 13.496C55.0783 12.504 55.8463 11.712 56.8383 11.12C57.8463 10.512 59.0303 10.208 60.3903 10.208C61.7663 10.208 62.9423 10.512 63.9183 11.12C64.8943 11.712 65.6383 12.504 66.1503 13.496C66.6783 14.472 66.9423 15.528 66.9423 16.664C66.9423 16.856 66.9343 17.056 66.9183 17.264C66.9023 17.456 66.8863 17.616 66.8703 17.744H57.1503C57.2143 18.384 57.3983 18.944 57.7023 19.424C58.0223 19.904 58.4223 20.272 58.9023 20.528C59.3983 20.768 59.9263 20.888 60.4863 20.888C61.1263 20.888 61.7263 20.736 62.2863 20.432C62.8623 20.112 63.2543 19.696 63.4623 19.184L66.2223 19.952C65.9183 20.592 65.4783 21.16 64.9023 21.656C64.3423 22.152 63.6783 22.544 62.9103 22.832C62.1423 23.104 61.2943 23.24 60.3663 23.24ZM57.0783 15.704H63.6543C63.5903 15.064 63.4063 14.512 63.1023 14.048C62.8143 13.568 62.4303 13.2 61.9503 12.944C61.4703 12.672 60.9343 12.536 60.3423 12.536C59.7663 12.536 59.2383 12.672 58.7583 12.944C58.2943 13.2 57.9103 13.568 57.6063 14.048C57.3183 14.512 57.1423 15.064 57.0783 15.704ZM88.4375 23H85.2215V15.944C85.2215 14.952 85.0455 14.224 84.6935 13.76C84.3575 13.28 83.8855 13.04 83.2775 13.04C82.6535 13.04 82.0535 13.288 81.4775 13.784C80.9175 14.264 80.5175 14.896 80.2775 15.68V23H77.0615V15.944C77.0615 14.936 76.8855 14.2 76.5335 13.736C76.1975 13.272 75.7255 13.04 75.1175 13.04C74.4935 13.04 73.8935 13.28 73.3175 13.76C72.7575 14.24 72.3575 14.872 72.1175 15.656V23H68.9015V10.424H71.8055V12.752C72.2855 11.936 72.9255 11.312 73.7255 10.88C74.5255 10.432 75.4455 10.208 76.4855 10.208C77.5255 10.208 78.3335 10.464 78.9095 10.976C79.5015 11.488 79.8775 12.12 80.0375 12.872C80.5495 12.008 81.1975 11.352 81.9815 10.904C82.7815 10.44 83.6775 10.208 84.6695 10.208C85.4535 10.208 86.0855 10.352 86.5655 10.64C87.0615 10.912 87.4455 11.288 87.7175 11.768C87.9895 12.232 88.1735 12.76 88.2695 13.352C88.3815 13.944 88.4375 14.544 88.4375 15.152V23ZM111.043 18.608C111.043 19.568 110.795 20.376 110.299 21.032C109.803 21.672 109.131 22.16 108.283 22.496C107.451 22.832 106.539 23 105.547 23H97.3151V5.96H106.435C107.235 5.96 107.923 6.176 108.499 6.608C109.091 7.024 109.539 7.568 109.843 8.24C110.163 8.896 110.323 9.584 110.323 10.304C110.323 11.12 110.115 11.896 109.699 12.632C109.283 13.368 108.675 13.912 107.875 14.264C108.851 14.552 109.619 15.072 110.179 15.824C110.755 16.576 111.043 17.504 111.043 18.608ZM107.707 17.984C107.707 17.552 107.619 17.168 107.443 16.832C107.267 16.48 107.027 16.208 106.723 16.016C106.435 15.808 106.099 15.704 105.715 15.704H100.627V20.192H105.547C105.947 20.192 106.307 20.096 106.627 19.904C106.963 19.696 107.227 19.424 107.419 19.088C107.611 18.752 107.707 18.384 107.707 17.984ZM100.627 8.792V13.088H105.043C105.411 13.088 105.747 13 106.051 12.824C106.355 12.648 106.595 12.4 106.771 12.08C106.963 11.76 107.059 11.376 107.059 10.928C107.059 10.496 106.971 10.12 106.795 9.8C106.635 9.48 106.411 9.232 106.123 9.056C105.851 8.88 105.539 8.792 105.187 8.792H100.627ZM125.004 23H121.788V15.944C121.788 14.968 121.596 14.24 121.212 13.76C120.844 13.28 120.332 13.04 119.676 13.04C119.292 13.04 118.884 13.152 118.452 13.376C118.02 13.6 117.628 13.912 117.276 14.312C116.94 14.696 116.692 15.144 116.532 15.656V23H113.316V5.48H116.532V12.752C116.996 11.952 117.628 11.328 118.428 10.88C119.228 10.432 120.1 10.208 121.044 10.208C121.86 10.208 122.524 10.352 123.036 10.64C123.548 10.912 123.948 11.288 124.236 11.768C124.524 12.232 124.724 12.76 124.836 13.352C124.948 13.928 125.004 14.528 125.004 15.152V23ZM126.936 19.28C126.936 18.464 127.16 17.752 127.608 17.144C128.072 16.52 128.712 16.04 129.528 15.704C130.344 15.368 131.28 15.2 132.336 15.2C132.864 15.2 133.4 15.24 133.944 15.32C134.488 15.4 134.96 15.528 135.36 15.704V15.032C135.36 14.232 135.12 13.616 134.64 13.184C134.176 12.752 133.48 12.536 132.552 12.536C131.864 12.536 131.208 12.656 130.584 12.896C129.96 13.136 129.304 13.488 128.616 13.952L127.584 11.84C128.416 11.296 129.264 10.888 130.128 10.616C131.008 10.344 131.928 10.208 132.888 10.208C134.68 10.208 136.072 10.656 137.064 11.552C138.072 12.448 138.576 13.728 138.576 15.392V19.4C138.576 19.736 138.632 19.976 138.744 20.12C138.872 20.264 139.072 20.352 139.344 20.384V23C139.056 23.048 138.792 23.088 138.552 23.12C138.328 23.152 138.136 23.168 137.976 23.168C137.336 23.168 136.848 23.024 136.512 22.736C136.192 22.448 135.992 22.096 135.912 21.68L135.84 21.032C135.296 21.736 134.616 22.28 133.8 22.664C132.984 23.048 132.152 23.24 131.304 23.24C130.472 23.24 129.72 23.072 129.048 22.736C128.392 22.384 127.872 21.912 127.488 21.32C127.12 20.712 126.936 20.032 126.936 19.28ZM134.76 19.928C134.936 19.736 135.08 19.544 135.192 19.352C135.304 19.16 135.36 18.984 135.36 18.824V17.552C134.976 17.392 134.56 17.272 134.112 17.192C133.664 17.096 133.24 17.048 132.84 17.048C132.008 17.048 131.32 17.232 130.776 17.6C130.248 17.952 129.984 18.424 129.984 19.016C129.984 19.336 130.072 19.64 130.248 19.928C130.424 20.216 130.68 20.448 131.016 20.624C131.352 20.8 131.752 20.888 132.216 20.888C132.696 20.888 133.168 20.8 133.632 20.624C134.096 20.432 134.472 20.2 134.76 19.928ZM149 22.352C148.728 22.464 148.4 22.592 148.016 22.736C147.632 22.88 147.216 22.992 146.768 23.072C146.336 23.168 145.896 23.216 145.448 23.216C144.856 23.216 144.312 23.112 143.816 22.904C143.32 22.696 142.92 22.368 142.616 21.92C142.328 21.456 142.184 20.856 142.184 20.12V12.896H140.528V10.424H142.184V6.344H145.4V10.424H148.04V12.896H145.4V19.04C145.416 19.472 145.536 19.784 145.76 19.976C145.984 20.168 146.264 20.264 146.6 20.264C146.936 20.264 147.264 20.208 147.584 20.096C147.904 19.984 148.16 19.888 148.352 19.808L149 22.352ZM158.164 22.352C157.892 22.464 157.564 22.592 157.18 22.736C156.796 22.88 156.38 22.992 155.932 23.072C155.5 23.168 155.06 23.216 154.612 23.216C154.02 23.216 153.476 23.112 152.98 22.904C152.484 22.696 152.084 22.368 151.78 21.92C151.492 21.456 151.348 20.856 151.348 20.12V12.896H149.692V10.424H151.348V6.344H154.564V10.424H157.204V12.896H154.564V19.04C154.58 19.472 154.7 19.784 154.924 19.976C155.148 20.168 155.428 20.264 155.764 20.264C156.1 20.264 156.428 20.208 156.748 20.096C157.068 19.984 157.324 19.888 157.516 19.808L158.164 22.352Z" fill="#111111"/>
</svg>
